<?xml version="1.0" encoding="iso-8859-1"?>
<!-- Generator: Adobe Illustrator 19.0.0, SVG Export Plug-In . SVG Version: 6.00 Build 0)  -->
<svg version="1.1" id="Capa_1" xmlns="http://www.w3.org/2000/svg" xmlns:xlink="http://www.w3.org/1999/xlink" x="0px" y="0px"
	 viewBox="0 0 511 511" style="enable-background:new 0 0 511 511;" xml:space="preserve">
<g>
	<path d="M499.43,132.824l-22.627-22.627c-2.928-2.929-7.677-2.929-10.606,0c-2.929,2.929-2.929,7.678,0,10.606l22.627,22.628
		c4.628,4.627,7.176,10.779,7.176,17.324V228h-45.736c-18.855-19.708-45.4-32-74.764-32c-39.437,0-73.789,22.174-91.254,54.706
		C277.789,241.805,267.313,236,255.5,236s-22.289,5.805-28.746,14.706C209.289,218.174,174.937,196,135.5,196
		c-29.364,0-55.909,12.292-74.764,32H15v-67.245c0-6.544,2.548-12.697,7.176-17.324l22.627-22.627c2.929-2.929,2.929-7.678,0-10.606
		c-2.929-2.929-7.678-2.929-10.606,0l-22.627,22.627C4.109,140.284,0,150.204,0,160.755V243.5C0,260.869,14.131,275,31.5,275h3.437
		C33.023,282.858,32,291.061,32,299.5C32,356.57,78.43,403,135.5,403S239,356.57,239,299.5c0-9.863-1.388-19.408-3.977-28.45
		c0.243-11.095,9.325-20.05,20.477-20.05s20.234,8.955,20.477,20.05c-2.589,9.043-3.977,18.587-3.977,28.45
		c0,57.07,46.43,103.5,103.5,103.5S479,356.57,479,299.5c0-8.439-1.023-16.642-2.937-24.5h3.437c17.369,0,31.5-14.131,31.5-31.5
		v-82.745C511,150.204,506.891,140.284,499.43,132.824z M39.5,260h-8c-9.098,0-16.5-7.402-16.5-16.5V243h33.825
		c-3.5,5.351-6.518,11.043-8.992,17.017C39.722,260.012,39.613,260,39.5,260z M135.5,388C86.701,388,47,348.299,47,299.5
		S86.701,211,135.5,211s88.5,39.701,88.5,88.5S184.299,388,135.5,388z M375.5,388c-48.799,0-88.5-39.701-88.5-88.5
		s39.701-88.5,88.5-88.5s88.5,39.701,88.5,88.5S424.299,388,375.5,388z M479.5,260h-8c-0.113,0-0.222,0.012-0.333,0.017
		c-2.474-5.973-5.492-11.666-8.992-17.017H496v0.5C496,252.598,488.598,260,479.5,260z"/>
	<path d="M192,299.5c0,31.154-25.346,56.5-56.5,56.5c-4.142,0-7.5,3.358-7.5,7.5s3.358,7.5,7.5,7.5c39.425,0,71.5-32.075,71.5-71.5
		c0-4.142-3.358-7.5-7.5-7.5S192,295.358,192,299.5z"/>
	<path d="M432,299.5c0,31.154-25.346,56.5-56.5,56.5c-4.142,0-7.5,3.358-7.5,7.5s3.358,7.5,7.5,7.5c39.425,0,71.5-32.075,71.5-71.5
		c0-4.142-3.358-7.5-7.5-7.5S432,295.358,432,299.5z"/>
</g>
<g>
</g>
<g>
</g>
<g>
</g>
<g>
</g>
<g>
</g>
<g>
</g>
<g>
</g>
<g>
</g>
<g>
</g>
<g>
</g>
<g>
</g>
<g>
</g>
<g>
</g>
<g>
</g>
<g>
</g>
</svg>
