<?xml version="1.0" encoding="utf-8"?>
<!-- Generator: Adobe Illustrator 26.0.3, SVG Export Plug-In . SVG Version: 6.00 Build 0)  -->
<svg version="1.1" id="レイヤー_1" xmlns="http://www.w3.org/2000/svg" xmlns:xlink="http://www.w3.org/1999/xlink" x="0px"
	 y="0px" viewBox="0 0 24 24" style="enable-background:new 0 0 24 24;" xml:space="preserve">
<style type="text/css">
	.st0{fill:#2081E2;}
	.st1{fill:#FFFFFF;}
</style>
<path class="st0" d="M24,12c0,6.6-5.4,12-12,12S0,18.6,0,12S5.4,0,12,0C18.6,0,24,5.4,24,12z"/>
<path class="st1" d="M5.9,12.4L5.9,12.4l3.2-5c0-0.1,0.2-0.1,0.2,0c0.5,1.2,1,2.6,0.8,3.5c-0.1,0.4-0.3,0.9-0.6,1.3
	c0,0.1-0.1,0.1-0.1,0.2c0,0-0.1,0-0.1,0H6C5.9,12.6,5.9,12.5,5.9,12.4z"/>
<path class="st1" d="M19.8,13.3v0.8c0,0,0,0.1-0.1,0.1c-0.2,0.1-1.1,0.5-1.4,1c-0.9,1.2-1.5,3-3,3H9.1c-2.2,0-4-1.8-4-4V14
	c0-0.1,0-0.1,0.1-0.1h3.5c0.1,0,0.1,0.1,0.1,0.1c0,0.2,0,0.5,0.1,0.7c0.2,0.4,0.6,0.7,1.1,0.7h1.7V14H10c-0.1,0-0.1-0.1-0.1-0.2
	c0,0,0-0.1,0.1-0.1c0.2-0.2,0.4-0.6,0.6-1c0.2-0.3,0.3-0.6,0.4-0.9c0-0.1,0-0.1,0.1-0.2c0-0.1,0.1-0.2,0.1-0.3c0-0.1,0-0.2,0.1-0.2
	c0.1-0.2,0.1-0.5,0.1-0.8c0-0.1,0-0.2,0-0.3c0-0.1,0-0.2,0-0.4c0-0.1,0-0.2,0-0.3c0-0.2-0.1-0.3-0.1-0.5l0-0.1
	c0-0.1-0.1-0.2-0.1-0.3c-0.1-0.3-0.2-0.7-0.3-1c0-0.1-0.1-0.2-0.1-0.4c-0.1-0.2-0.1-0.3-0.2-0.5c0-0.1-0.1-0.1-0.1-0.2
	c0-0.1-0.1-0.1-0.1-0.2c0-0.1-0.1-0.1-0.1-0.2L9.9,5.9c0-0.1,0-0.1,0.1-0.1l1.3,0.4h0c0,0,0,0,0,0l0.2,0l0.2,0.1l0.1,0V5.5
	c0-0.4,0.3-0.7,0.7-0.7c0.2,0,0.4,0.1,0.5,0.2c0.1,0.1,0.2,0.3,0.2,0.5v1.2l0.1,0c0,0,0,0,0,0c0,0,0.1,0.1,0.1,0.1
	c0,0,0.1,0.1,0.2,0.1c0.1,0.1,0.3,0.2,0.4,0.4c0,0,0.1,0.1,0.1,0.1c0.2,0.2,0.5,0.4,0.7,0.7c0.1,0.1,0.1,0.1,0.2,0.2
	c0.1,0.1,0.1,0.2,0.2,0.2c0.1,0.1,0.2,0.2,0.2,0.3c0,0.1,0.1,0.1,0.1,0.2c0.1,0.1,0.2,0.3,0.3,0.4c0,0.1,0.1,0.1,0.1,0.2
	c0.1,0.2,0.2,0.4,0.2,0.6c0,0,0,0.1,0,0.1v0c0,0.1,0,0.1,0,0.2c0,0.2,0,0.4,0,0.6c0,0.1,0,0.2-0.1,0.3c0,0.1-0.1,0.2-0.1,0.3
	c-0.1,0.2-0.2,0.3-0.3,0.5c0,0.1-0.1,0.1-0.1,0.2c0,0.1-0.1,0.1-0.1,0.2c-0.1,0.1-0.1,0.2-0.2,0.2c-0.1,0.1-0.1,0.1-0.2,0.2
	c-0.1,0.1-0.2,0.2-0.2,0.3c0,0.1-0.1,0.1-0.2,0.2c-0.1,0.1-0.1,0.1-0.2,0.2c-0.1,0.1-0.2,0.1-0.2,0.2L14.2,14c0,0,0,0-0.1,0h-1.1
	v1.3h1.3c0.3,0,0.6-0.1,0.8-0.3c0.1-0.1,0.4-0.4,0.8-0.8c0,0,0,0,0.1,0l3.7-1.1C19.8,13.2,19.8,13.2,19.8,13.3z"/>
</svg>
